STARTFONT 2.1
FONT -barbaross-creeper-medium-r-normal--15-150-100-100-m-80-ISO8859-1
SIZE 12 100 100
FONTBOUNDINGBOX 8 15 0 -3
STARTPROPERTIES 19
POINT_SIZE 150
PIXEL_SIZE 15
RESOLUTION_X 100
RESOLUTION_Y 100
FONT_ASCENT 12
FONT_DESCENT 3
AVERAGE_WIDTH 80
SPACING "m"
_GBDFED_INFO "Edited with gbdfed 1.6."
CHARSET_ENCODING "1"
CHARSET_REGISTRY "ISO8859"
FOUNDRY "barbaross"
FAMILY_NAME "creeper"
WEIGHT_NAME "medium"
SLANT "r"
SETWIDTH_NAME "normal"
ADD_STYLE_NAME ""
WEIGHT 15
DEFAULT_CHAR 0
ENDPROPERTIES
CHARS 190
STARTCHAR char32
ENCODING 32
SWIDTH 480 0
DWIDTH 8 0
BBX 0 0 0 0
BITMAP
ENDCHAR
STARTCHAR char33
ENCODING 33
SWIDTH 480 0
DWIDTH 8 0
BBX 1 9 4 0
BITMAP
80
80
80
80
80
80
00
80
80
ENDCHAR
STARTCHAR char34
ENCODING 34
SWIDTH 480 0
DWIDTH 8 0
BBX 3 5 3 4
BITMAP
A0
A0
A0
A0
A0
ENDCHAR
STARTCHAR char35
ENCODING 35
SWIDTH 480 0
DWIDTH 8 0
BBX 7 8 1 0
BITMAP
28
28
FE
28
28
FE
28
28
ENDCHAR
STARTCHAR char36
ENCODING 36
SWIDTH 480 0
DWIDTH 8 0
BBX 7 9 1 0
BITMAP
10
7E
90
90
7C
12
12
FC
10
ENDCHAR
STARTCHAR char37
ENCODING 37
SWIDTH 480 0
DWIDTH 8 0
BBX 6 8 1 0
BITMAP
40
A4
48
10
20
48
94
08
ENDCHAR
STARTCHAR char38
ENCODING 38
SWIDTH 480 0
DWIDTH 8 0
BBX 7 9 1 0
BITMAP
60
90
90
90
60
90
8A
84
7A
ENDCHAR
STARTCHAR char39
ENCODING 39
SWIDTH 480 0
DWIDTH 8 0
BBX 1 5 4 4
BITMAP
80
80
80
80
80
ENDCHAR
STARTCHAR char40
ENCODING 40
SWIDTH 480 0
DWIDTH 8 0
BBX 3 12 2 -2
BITMAP
20
40
80
80
80
80
80
80
80
80
40
20
ENDCHAR
STARTCHAR char41
ENCODING 41
SWIDTH 480 0
DWIDTH 8 0
BBX 3 12 3 -2
BITMAP
80
40
20
20
20
20
20
20
20
20
40
80
ENDCHAR
STARTCHAR char42
ENCODING 42
SWIDTH 480 0
DWIDTH 8 0
BBX 5 5 1 2
BITMAP
50
20
F8
20
50
ENDCHAR
STARTCHAR char43
ENCODING 43
SWIDTH 480 0
DWIDTH 8 0
BBX 7 7 1 1
BITMAP
10
10
10
FE
10
10
10
ENDCHAR
STARTCHAR char44
ENCODING 44
SWIDTH 480 0
DWIDTH 8 0
BBX 3 3 2 -1
BITMAP
20
20
C0
ENDCHAR
STARTCHAR char45
ENCODING 45
SWIDTH 480 0
DWIDTH 8 0
BBX 6 1 1 4
BITMAP
FC
ENDCHAR
STARTCHAR char46
ENCODING 46
SWIDTH 480 0
DWIDTH 8 0
BBX 2 1 3 0
BITMAP
C0
ENDCHAR
STARTCHAR char47
ENCODING 47
SWIDTH 480 0
DWIDTH 8 0
BBX 6 10 1 -1
BITMAP
04
08
08
10
10
20
20
40
40
80
ENDCHAR
STARTCHAR char48
ENCODING 48
SWIDTH 480 0
DWIDTH 8 0
BBX 6 9 1 0
BITMAP
78
84
84
8C
94
A4
C4
84
78
ENDCHAR
STARTCHAR char49
ENCODING 49
SWIDTH 480 0
DWIDTH 8 0
BBX 3 9 2 0
BITMAP
20
60
A0
20
20
20
20
20
20
ENDCHAR
STARTCHAR char50
ENCODING 50
SWIDTH 480 0
DWIDTH 8 0
BBX 6 9 1 0
BITMAP
78
84
04
08
10
20
40
80
FC
ENDCHAR
STARTCHAR char51
ENCODING 51
SWIDTH 480 0
DWIDTH 8 0
BBX 6 9 1 0
BITMAP
FC
08
10
38
04
04
04
84
78
ENDCHAR
STARTCHAR char52
ENCODING 52
SWIDTH 480 0
DWIDTH 8 0
BBX 6 9 1 0
BITMAP
18
28
48
88
88
FC
08
08
08
ENDCHAR
STARTCHAR char53
ENCODING 53
SWIDTH 480 0
DWIDTH 8 0
BBX 6 9 1 0
BITMAP
FC
80
80
F8
84
04
04
84
78
ENDCHAR
STARTCHAR char54
ENCODING 54
SWIDTH 480 0
DWIDTH 8 0
BBX 6 9 1 0
BITMAP
78
84
80
80
F8
84
84
84
78
ENDCHAR
STARTCHAR char55
ENCODING 55
SWIDTH 480 0
DWIDTH 8 0
BBX 6 9 1 0
BITMAP
FC
04
04
08
08
10
10
20
20
ENDCHAR
STARTCHAR char56
ENCODING 56
SWIDTH 480 0
DWIDTH 8 0
BBX 6 9 1 0
BITMAP
78
84
84
84
78
84
84
84
78
ENDCHAR
STARTCHAR char57
ENCODING 57
SWIDTH 480 0
DWIDTH 8 0
BBX 6 9 1 0
BITMAP
78
84
84
84
7C
04
04
84
78
ENDCHAR
STARTCHAR char58
ENCODING 58
SWIDTH 480 0
DWIDTH 8 0
BBX 1 8 3 0
BITMAP
80
80
00
00
00
00
80
80
ENDCHAR
STARTCHAR char59
ENCODING 59
SWIDTH 480 0
DWIDTH 8 0
BBX 3 9 1 -1
BITMAP
20
20
00
00
00
00
20
20
C0
ENDCHAR
STARTCHAR char60
ENCODING 60
SWIDTH 480 0
DWIDTH 8 0
BBX 4 7 1 1
BITMAP
10
20
40
80
40
20
10
ENDCHAR
STARTCHAR char61
ENCODING 61
SWIDTH 480 0
DWIDTH 8 0
BBX 6 4 1 2
BITMAP
FC
00
00
FC
ENDCHAR
STARTCHAR char62
ENCODING 62
SWIDTH 480 0
DWIDTH 8 0
BBX 4 7 1 1
BITMAP
80
40
20
10
20
40
80
ENDCHAR
STARTCHAR char63
ENCODING 63
SWIDTH 480 0
DWIDTH 8 0
BBX 6 9 1 0
BITMAP
F8
04
04
1C
20
20
00
20
20
ENDCHAR
STARTCHAR char64
ENCODING 64
SWIDTH 480 0
DWIDTH 8 0
BBX 6 8 1 0
BITMAP
FC
84
BC
A4
A4
BC
80
FC
ENDCHAR
STARTCHAR char65
ENCODING 65
SWIDTH 480 0
DWIDTH 8 0
BBX 6 9 1 0
BITMAP
78
84
84
84
FC
84
84
84
84
ENDCHAR
STARTCHAR char66
ENCODING 66
SWIDTH 480 0
DWIDTH 8 0
BBX 6 9 1 0
BITMAP
F0
88
88
88
F8
84
84
84
F8
ENDCHAR
STARTCHAR char67
ENCODING 67
SWIDTH 480 0
DWIDTH 8 0
BBX 6 9 1 0
BITMAP
78
84
80
80
80
80
80
84
78
ENDCHAR
STARTCHAR char68
ENCODING 68
SWIDTH 480 0
DWIDTH 8 0
BBX 6 9 1 0
BITMAP
F0
88
84
84
84
84
84
88
F0
ENDCHAR
STARTCHAR char69
ENCODING 69
SWIDTH 480 0
DWIDTH 8 0
BBX 6 9 1 0
BITMAP
FC
80
80
80
E0
80
80
80
FC
ENDCHAR
STARTCHAR char70
ENCODING 70
SWIDTH 480 0
DWIDTH 8 0
BBX 6 9 1 0
BITMAP
FC
80
80
80
E0
80
80
80
80
ENDCHAR
STARTCHAR char71
ENCODING 71
SWIDTH 480 0
DWIDTH 8 0
BBX 6 9 1 0
BITMAP
78
84
80
80
80
9C
84
84
78
ENDCHAR
STARTCHAR char72
ENCODING 72
SWIDTH 480 0
DWIDTH 8 0
BBX 6 9 1 0
BITMAP
84
84
84
FC
84
84
84
84
84
ENDCHAR
STARTCHAR char73
ENCODING 73
SWIDTH 480 0
DWIDTH 8 0
BBX 5 9 1 0
BITMAP
F8
20
20
20
20
20
20
20
F8
ENDCHAR
STARTCHAR char74
ENCODING 74
SWIDTH 480 0
DWIDTH 8 0
BBX 6 9 1 0
BITMAP
3C
04
04
04
04
04
84
84
7C
ENDCHAR
STARTCHAR char75
ENCODING 75
SWIDTH 480 0
DWIDTH 8 0
BBX 6 9 1 0
BITMAP
84
88
90
E0
90
88
88
84
84
ENDCHAR
STARTCHAR char76
ENCODING 76
SWIDTH 480 0
DWIDTH 8 0
BBX 6 9 1 0
BITMAP
80
80
80
80
80
80
80
80
FC
ENDCHAR
STARTCHAR char77
ENCODING 77
SWIDTH 480 0
DWIDTH 8 0
BBX 6 9 1 0
BITMAP
84
CC
B4
84
84
84
84
84
84
ENDCHAR
STARTCHAR char78
ENCODING 78
SWIDTH 480 0
DWIDTH 8 0
BBX 6 9 1 0
BITMAP
84
C4
C4
A4
94
8C
8C
84
84
ENDCHAR
STARTCHAR char79
ENCODING 79
SWIDTH 480 0
DWIDTH 8 0
BBX 6 9 1 0
BITMAP
78
84
84
84
84
84
84
84
78
ENDCHAR
STARTCHAR char80
ENCODING 80
SWIDTH 480 0
DWIDTH 8 0
BBX 6 9 1 0
BITMAP
F8
84
84
84
F8
80
80
80
80
ENDCHAR
STARTCHAR char81
ENCODING 81
SWIDTH 480 0
DWIDTH 8 0
BBX 6 11 1 -2
BITMAP
78
84
84
84
84
84
94
8C
7C
04
04
ENDCHAR
STARTCHAR char82
ENCODING 82
SWIDTH 480 0
DWIDTH 8 0
BBX 6 9 1 0
BITMAP
F8
84
84
84
F8
E0
90
88
84
ENDCHAR
STARTCHAR char83
ENCODING 83
SWIDTH 480 0
DWIDTH 8 0
BBX 6 9 1 0
BITMAP
78
84
80
80
78
04
04
84
78
ENDCHAR
STARTCHAR char84
ENCODING 84
SWIDTH 480 0
DWIDTH 8 0
BBX 5 9 1 0
BITMAP
F8
20
20
20
20
20
20
20
20
ENDCHAR
STARTCHAR char85
ENCODING 85
SWIDTH 480 0
DWIDTH 8 0
BBX 6 9 1 0
BITMAP
84
84
84
84
84
84
84
84
7C
ENDCHAR
STARTCHAR char86
ENCODING 86
SWIDTH 480 0
DWIDTH 8 0
BBX 6 9 1 0
BITMAP
84
84
84
84
84
84
84
48
30
ENDCHAR
STARTCHAR char87
ENCODING 87
SWIDTH 480 0
DWIDTH 8 0
BBX 6 9 1 0
BITMAP
84
84
84
84
84
84
B4
CC
84
ENDCHAR
STARTCHAR char88
ENCODING 88
SWIDTH 480 0
DWIDTH 8 0
BBX 6 9 1 0
BITMAP
84
84
48
30
48
84
84
84
84
ENDCHAR
STARTCHAR char89
ENCODING 89
SWIDTH 480 0
DWIDTH 8 0
BBX 6 9 1 0
BITMAP
84
84
84
84
7C
04
84
84
7C
ENDCHAR
STARTCHAR char90
ENCODING 90
SWIDTH 480 0
DWIDTH 8 0
BBX 6 9 1 0
BITMAP
FC
04
04
08
10
20
40
80
FC
ENDCHAR
STARTCHAR char91
ENCODING 91
SWIDTH 480 0
DWIDTH 8 0
BBX 3 12 2 -2
BITMAP
E0
80
80
80
80
80
80
80
80
80
80
E0
ENDCHAR
STARTCHAR char92
ENCODING 92
SWIDTH 480 0
DWIDTH 8 0
BBX 6 10 1 -1
BITMAP
80
40
40
20
20
10
10
08
08
04
ENDCHAR
STARTCHAR char93
ENCODING 93
SWIDTH 480 0
DWIDTH 8 0
BBX 3 12 2 -2
BITMAP
E0
20
20
20
20
20
20
20
20
20
20
E0
ENDCHAR
STARTCHAR char94
ENCODING 94
SWIDTH 480 0
DWIDTH 8 0
BBX 6 3 1 6
BITMAP
30
48
84
ENDCHAR
STARTCHAR char95
ENCODING 95
SWIDTH 480 0
DWIDTH 8 0
BBX 6 1 1 0
BITMAP
FC
ENDCHAR
STARTCHAR char96
ENCODING 96
SWIDTH 480 0
DWIDTH 8 0
BBX 4 4 2 4
BITMAP
80
40
20
10
ENDCHAR
STARTCHAR char97
ENCODING 97
SWIDTH 480 0
DWIDTH 8 0
BBX 6 7 1 0
BITMAP
7C
84
84
84
84
8C
74
ENDCHAR
STARTCHAR char98
ENCODING 98
SWIDTH 480 0
DWIDTH 8 0
BBX 6 9 1 0
BITMAP
80
80
F8
84
84
84
84
84
F8
ENDCHAR
STARTCHAR char99
ENCODING 99
SWIDTH 480 0
DWIDTH 8 0
BBX 6 7 1 0
BITMAP
78
84
80
80
80
84
78
ENDCHAR
STARTCHAR char100
ENCODING 100
SWIDTH 480 0
DWIDTH 8 0
BBX 6 9 1 0
BITMAP
04
04
7C
84
84
84
84
84
7C
ENDCHAR
STARTCHAR char101
ENCODING 101
SWIDTH 480 0
DWIDTH 8 0
BBX 6 7 1 0
BITMAP
78
84
84
FC
80
80
7C
ENDCHAR
STARTCHAR char102
ENCODING 102
SWIDTH 480 0
DWIDTH 8 0
BBX 6 12 1 -3
BITMAP
18
24
20
20
F8
20
20
20
20
20
20
C0
ENDCHAR
STARTCHAR char103
ENCODING 103
SWIDTH 480 0
DWIDTH 8 0
BBX 6 10 1 -3
BITMAP
78
84
84
84
84
84
7C
04
04
78
ENDCHAR
STARTCHAR char104
ENCODING 104
SWIDTH 480 0
DWIDTH 8 0
BBX 6 9 1 0
BITMAP
80
80
F8
84
84
84
84
84
84
ENDCHAR
STARTCHAR char105
ENCODING 105
SWIDTH 480 0
DWIDTH 8 0
BBX 5 9 1 0
BITMAP
20
20
00
E0
20
20
20
20
38
ENDCHAR
STARTCHAR char106
ENCODING 106
SWIDTH 480 0
DWIDTH 8 0
BBX 3 12 1 -3
BITMAP
20
20
00
E0
20
20
20
20
20
20
20
C0
ENDCHAR
STARTCHAR char107
ENCODING 107
SWIDTH 480 0
DWIDTH 8 0
BBX 6 9 1 0
BITMAP
80
80
88
88
90
E0
90
88
84
ENDCHAR
STARTCHAR char108
ENCODING 108
SWIDTH 480 0
DWIDTH 8 0
BBX 3 9 2 0
BITMAP
80
80
80
80
80
80
80
80
60
ENDCHAR
STARTCHAR char109
ENCODING 109
SWIDTH 480 0
DWIDTH 8 0
BBX 6 7 1 0
BITMAP
84
CC
B4
84
84
84
84
ENDCHAR
STARTCHAR char110
ENCODING 110
SWIDTH 480 0
DWIDTH 8 0
BBX 6 7 1 0
BITMAP
F8
84
84
84
84
84
84
ENDCHAR
STARTCHAR char111
ENCODING 111
SWIDTH 480 0
DWIDTH 8 0
BBX 6 7 1 0
BITMAP
78
84
84
84
84
84
78
ENDCHAR
STARTCHAR char112
ENCODING 112
SWIDTH 480 0
DWIDTH 8 0
BBX 6 10 1 -3
BITMAP
78
84
84
84
84
84
F8
80
80
80
ENDCHAR
STARTCHAR char113
ENCODING 113
SWIDTH 480 0
DWIDTH 8 0
BBX 6 10 1 -3
BITMAP
78
84
84
84
84
84
7C
04
04
04
ENDCHAR
STARTCHAR char114
ENCODING 114
SWIDTH 480 0
DWIDTH 8 0
BBX 6 7 1 0
BITMAP
F8
84
84
80
80
80
80
ENDCHAR
STARTCHAR char115
ENCODING 115
SWIDTH 480 0
DWIDTH 8 0
BBX 6 7 1 0
BITMAP
7C
80
80
78
04
04
F8
ENDCHAR
STARTCHAR char116
ENCODING 116
SWIDTH 480 0
DWIDTH 8 0
BBX 5 9 1 0
BITMAP
20
20
F8
20
20
20
20
20
18
ENDCHAR
STARTCHAR char117
ENCODING 117
SWIDTH 480 0
DWIDTH 8 0
BBX 6 7 1 0
BITMAP
84
84
84
84
84
84
7C
ENDCHAR
STARTCHAR char118
ENCODING 118
SWIDTH 480 0
DWIDTH 8 0
BBX 6 7 1 0
BITMAP
84
84
84
84
84
48
30
ENDCHAR
STARTCHAR char119
ENCODING 119
SWIDTH 480 0
DWIDTH 8 0
BBX 6 7 1 0
BITMAP
84
84
84
84
B4
CC
84
ENDCHAR
STARTCHAR char120
ENCODING 120
SWIDTH 480 0
DWIDTH 8 0
BBX 6 7 1 0
BITMAP
84
84
48
30
48
84
84
ENDCHAR
STARTCHAR char121
ENCODING 121
SWIDTH 480 0
DWIDTH 8 0
BBX 6 10 1 -3
BITMAP
84
84
84
84
84
84
7C
04
84
78
ENDCHAR
STARTCHAR char122
ENCODING 122
SWIDTH 480 0
DWIDTH 8 0
BBX 6 7 1 0
BITMAP
FC
08
10
20
40
80
FC
ENDCHAR
STARTCHAR char123
ENCODING 123
SWIDTH 480 0
DWIDTH 8 0
BBX 5 12 1 -2
BITMAP
18
20
20
20
60
80
80
60
20
20
20
18
ENDCHAR
STARTCHAR char124
ENCODING 124
SWIDTH 480 0
DWIDTH 8 0
BBX 1 9 4 0
BITMAP
80
80
80
80
80
80
80
80
80
ENDCHAR
STARTCHAR char125
ENCODING 125
SWIDTH 480 0
DWIDTH 8 0
BBX 5 12 1 -2
BITMAP
C0
20
20
20
30
08
08
30
20
20
20
C0
ENDCHAR
STARTCHAR char126
ENCODING 126
SWIDTH 480 0
DWIDTH 8 0
BBX 6 2 1 4
BITMAP
64
98
ENDCHAR
STARTCHAR char161
ENCODING 161
SWIDTH 480 0
DWIDTH 8 0
BBX 1 9 4 0
BITMAP
80
80
00
00
80
80
80
80
80
ENDCHAR
STARTCHAR char162
ENCODING 162
SWIDTH 480 0
DWIDTH 8 0
BBX 6 9 1 -1
BITMAP
20
78
A4
A0
A0
A0
A4
78
20
ENDCHAR
STARTCHAR char163
ENCODING 163
SWIDTH 480 0
DWIDTH 8 0
BBX 6 9 1 0
BITMAP
78
84
84
80
E0
80
84
E4
9C
ENDCHAR
STARTCHAR char164
ENCODING 164
SWIDTH 480 0
DWIDTH 8 0
BBX 7 7 1 0
BITMAP
82
7C
44
44
44
7C
82
ENDCHAR
STARTCHAR char165
ENCODING 165
SWIDTH 480 0
DWIDTH 8 0
BBX 7 9 1 0
BITMAP
44
44
FE
44
FE
44
28
10
10
ENDCHAR
STARTCHAR char166
ENCODING 166
SWIDTH 480 0
DWIDTH 8 0
BBX 1 9 4 0
BITMAP
80
80
80
00
00
80
80
80
80
ENDCHAR
STARTCHAR char167
ENCODING 167
SWIDTH 480 0
DWIDTH 8 0
BBX 6 9 1 0
BITMAP
78
84
80
F8
84
7C
04
84
78
ENDCHAR
STARTCHAR char168
ENCODING 168
SWIDTH 480 0
DWIDTH 8 0
BBX 5 1 2 8
BITMAP
D8
ENDCHAR
STARTCHAR char169
ENCODING 169
SWIDTH 480 0
DWIDTH 8 0
BBX 7 9 1 0
BITMAP
38
44
BA
A2
A2
A2
BA
44
38
ENDCHAR
STARTCHAR char170
ENCODING 170
SWIDTH 480 0
DWIDTH 8 0
BBX 6 9 1 3
BITMAP
78
84
84
84
84
84
7C
00
FC
ENDCHAR
STARTCHAR char171
ENCODING 171
SWIDTH 480 0
DWIDTH 8 0
BBX 6 6 1 2
BITMAP
44
A8
90
90
A8
44
ENDCHAR
STARTCHAR char172
ENCODING 172
SWIDTH 480 0
DWIDTH 8 0
BBX 6 3 1 3
BITMAP
FC
04
04
ENDCHAR
STARTCHAR char173
ENCODING 173
SWIDTH 480 0
DWIDTH 8 0
BBX 6 1 1 3
BITMAP
FC
ENDCHAR
STARTCHAR char174
ENCODING 174
SWIDTH 480 0
DWIDTH 8 0
BBX 7 9 1 0
BITMAP
38
44
B2
AA
A2
A2
A2
44
38
ENDCHAR
STARTCHAR char175
ENCODING 175
SWIDTH 480 0
DWIDTH 8 0
BBX 6 1 1 8
BITMAP
FC
ENDCHAR
STARTCHAR char176
ENCODING 176
SWIDTH 480 0
DWIDTH 8 0
BBX 5 5 2 3
BITMAP
20
50
88
50
20
ENDCHAR
STARTCHAR char177
ENCODING 177
SWIDTH 480 0
DWIDTH 8 0
BBX 7 7 1 1
BITMAP
10
10
FE
10
10
10
FE
ENDCHAR
STARTCHAR char178
ENCODING 178
SWIDTH 480 0
DWIDTH 8 0
BBX 5 6 2 3
BITMAP
38
58
88
50
20
F8
ENDCHAR
STARTCHAR char179
ENCODING 179
SWIDTH 480 0
DWIDTH 8 0
BBX 5 6 2 4
BITMAP
F8
10
20
10
08
F0
ENDCHAR
STARTCHAR char180
ENCODING 180
SWIDTH 480 0
DWIDTH 8 0
BBX 4 4 2 5
BITMAP
10
20
40
80
ENDCHAR
STARTCHAR char181
ENCODING 181
SWIDTH 480 0
DWIDTH 8 0
BBX 6 10 1 -3
BITMAP
84
84
84
84
84
84
F8
80
80
80
ENDCHAR
STARTCHAR char182
ENCODING 182
SWIDTH 480 0
DWIDTH 8 0
BBX 6 11 1 -3
BITMAP
3C
64
E4
E4
64
24
24
24
24
28
30
ENDCHAR
STARTCHAR char183
ENCODING 183
SWIDTH 480 0
DWIDTH 8 0
BBX 2 1 3 3
BITMAP
C0
ENDCHAR
STARTCHAR char184
ENCODING 184
SWIDTH 480 0
DWIDTH 8 0
BBX 3 3 2 -3
BITMAP
20
20
E0
ENDCHAR
STARTCHAR char185
ENCODING 185
SWIDTH 480 0
DWIDTH 8 0
BBX 5 6 2 4
BITMAP
60
A0
20
20
20
F8
ENDCHAR
STARTCHAR char186
ENCODING 186
SWIDTH 480 0
DWIDTH 8 0
BBX 5 7 1 2
BITMAP
20
50
88
50
20
00
F8
ENDCHAR
STARTCHAR char187
ENCODING 187
SWIDTH 480 0
DWIDTH 8 0
BBX 6 6 1 2
BITMAP
88
54
24
24
54
88
ENDCHAR
STARTCHAR char188
ENCODING 188
SWIDTH 480 0
DWIDTH 8 0
BBX 6 12 1 -2
BITMAP
10
10
10
10
00
FC
00
48
48
78
08
08
ENDCHAR
STARTCHAR char189
ENCODING 189
SWIDTH 480 0
DWIDTH 8 0
BBX 6 12 1 -2
BITMAP
10
10
10
10
00
FC
00
30
48
10
20
78
ENDCHAR
STARTCHAR char190
ENCODING 190
SWIDTH 480 0
DWIDTH 8 0
BBX 6 14 1 -2
BITMAP
78
08
18
08
08
78
00
FC
00
48
48
78
08
08
ENDCHAR
STARTCHAR char191
ENCODING 191
SWIDTH 480 0
DWIDTH 8 0
BBX 6 9 1 0
BITMAP
10
10
00
10
10
E0
80
80
7C
ENDCHAR
STARTCHAR char192
ENCODING 192
SWIDTH 480 0
DWIDTH 8 0
BBX 6 12 1 0
BITMAP
20
10
00
78
84
84
84
FC
84
84
84
84
ENDCHAR
STARTCHAR char193
ENCODING 193
SWIDTH 480 0
DWIDTH 8 0
BBX 6 12 1 0
BITMAP
10
20
00
78
84
84
84
FC
84
84
84
84
ENDCHAR
STARTCHAR char194
ENCODING 194
SWIDTH 480 0
DWIDTH 8 0
BBX 6 12 1 0
BITMAP
78
84
00
78
84
84
84
FC
84
84
84
84
ENDCHAR
STARTCHAR char195
ENCODING 195
SWIDTH 480 0
DWIDTH 8 0
BBX 6 12 1 0
BITMAP
64
98
00
78
84
84
84
FC
84
84
84
84
ENDCHAR
STARTCHAR char196
ENCODING 196
SWIDTH 480 0
DWIDTH 8 0
BBX 6 11 1 0
BITMAP
CC
00
78
84
84
84
FC
84
84
84
84
ENDCHAR
STARTCHAR char197
ENCODING 197
SWIDTH 480 0
DWIDTH 8 0
BBX 6 11 1 0
BITMAP
30
00
78
84
84
84
FC
84
84
84
84
ENDCHAR
STARTCHAR char198
ENCODING 198
SWIDTH 480 0
DWIDTH 8 0
BBX 6 9 1 0
BITMAP
7C
90
90
90
F8
90
90
90
9C
ENDCHAR
STARTCHAR char199
ENCODING 199
SWIDTH 480 0
DWIDTH 8 0
BBX 6 12 1 -3
BITMAP
78
84
80
80
80
80
80
84
78
08
08
78
ENDCHAR
STARTCHAR char200
ENCODING 200
SWIDTH 480 0
DWIDTH 8 0
BBX 6 12 1 0
BITMAP
20
10
00
FC
80
80
E0
80
80
80
80
FC
ENDCHAR
STARTCHAR char201
ENCODING 201
SWIDTH 480 0
DWIDTH 8 0
BBX 6 12 1 0
BITMAP
10
20
00
FC
80
80
E0
80
80
80
80
FC
ENDCHAR
STARTCHAR char202
ENCODING 202
SWIDTH 480 0
DWIDTH 8 0
BBX 6 12 1 0
BITMAP
78
84
00
FC
80
80
E0
80
80
80
80
FC
ENDCHAR
STARTCHAR char203
ENCODING 203
SWIDTH 480 0
DWIDTH 8 0
BBX 6 11 1 0
BITMAP
CC
00
FC
80
80
E0
80
80
80
80
FC
ENDCHAR
STARTCHAR char204
ENCODING 204
SWIDTH 480 0
DWIDTH 8 0
BBX 5 12 1 0
BITMAP
40
20
00
F8
20
20
20
20
20
20
20
F8
ENDCHAR
STARTCHAR char205
ENCODING 205
SWIDTH 480 0
DWIDTH 8 0
BBX 5 12 1 0
BITMAP
10
20
00
F8
20
20
20
20
20
20
20
F8
ENDCHAR
STARTCHAR char206
ENCODING 206
SWIDTH 480 0
DWIDTH 8 0
BBX 5 12 1 0
BITMAP
70
88
00
F8
20
20
20
20
20
20
20
F8
ENDCHAR
STARTCHAR char207
ENCODING 207
SWIDTH 480 0
DWIDTH 8 0
BBX 5 11 1 0
BITMAP
D8
00
F8
20
20
20
20
20
20
20
F8
ENDCHAR
STARTCHAR char208
ENCODING 208
SWIDTH 480 0
DWIDTH 8 0
BBX 6 9 1 0
BITMAP
60
50
48
44
E4
44
48
50
60
ENDCHAR
STARTCHAR char209
ENCODING 209
SWIDTH 480 0
DWIDTH 8 0
BBX 6 12 1 0
BITMAP
64
98
00
84
C4
C4
A4
94
8C
8C
84
84
ENDCHAR
STARTCHAR char210
ENCODING 210
SWIDTH 480 0
DWIDTH 8 0
BBX 6 12 1 0
BITMAP
20
10
00
78
84
84
84
84
84
84
84
78
ENDCHAR
STARTCHAR char211
ENCODING 211
SWIDTH 480 0
DWIDTH 8 0
BBX 6 12 1 0
BITMAP
10
20
00
78
84
84
84
84
84
84
84
78
ENDCHAR
STARTCHAR char212
ENCODING 212
SWIDTH 480 0
DWIDTH 8 0
BBX 6 12 1 0
BITMAP
78
84
00
78
84
84
84
84
84
84
84
78
ENDCHAR
STARTCHAR char213
ENCODING 213
SWIDTH 480 0
DWIDTH 8 0
BBX 6 12 1 0
BITMAP
64
98
00
78
84
84
84
84
84
84
84
78
ENDCHAR
STARTCHAR char214
ENCODING 214
SWIDTH 480 0
DWIDTH 8 0
BBX 6 11 1 0
BITMAP
CC
00
78
84
84
84
84
84
84
84
78
ENDCHAR
STARTCHAR char215
ENCODING 215
SWIDTH 480 0
DWIDTH 8 0
BBX 6 6 1 2
BITMAP
84
48
30
30
48
84
ENDCHAR
STARTCHAR char216
ENCODING 216
SWIDTH 480 0
DWIDTH 8 0
BBX 8 10 0 0
BITMAP
3C
43
42
46
4A
52
62
42
C2
3C
ENDCHAR
STARTCHAR char217
ENCODING 217
SWIDTH 480 0
DWIDTH 8 0
BBX 6 12 1 0
BITMAP
20
10
00
84
84
84
84
84
84
84
84
7C
ENDCHAR
STARTCHAR char218
ENCODING 218
SWIDTH 480 0
DWIDTH 8 0
BBX 6 12 1 0
BITMAP
10
20
00
84
84
84
84
84
84
84
84
7C
ENDCHAR
STARTCHAR char219
ENCODING 219
SWIDTH 480 0
DWIDTH 8 0
BBX 6 12 1 0
BITMAP
30
48
00
84
84
84
84
84
84
84
84
7C
ENDCHAR
STARTCHAR char220
ENCODING 220
SWIDTH 480 0
DWIDTH 8 0
BBX 6 11 1 0
BITMAP
CC
00
84
84
84
84
84
84
84
84
7C
ENDCHAR
STARTCHAR char221
ENCODING 221
SWIDTH 480 0
DWIDTH 8 0
BBX 6 12 1 0
BITMAP
10
20
00
84
84
84
84
7C
04
84
84
78
ENDCHAR
STARTCHAR char222
ENCODING 222
SWIDTH 480 0
DWIDTH 8 0
BBX 6 9 1 0
BITMAP
80
F0
88
84
84
84
88
F0
80
ENDCHAR
STARTCHAR char223
ENCODING 223
SWIDTH 480 0
DWIDTH 8 0
BBX 6 10 1 -2
BITMAP
60
90
90
A8
C4
84
84
F8
80
80
ENDCHAR
STARTCHAR char224
ENCODING 224
SWIDTH 480 0
DWIDTH 8 0
BBX 6 10 1 0
BITMAP
20
10
00
7C
84
84
84
84
8C
74
ENDCHAR
STARTCHAR char225
ENCODING 225
SWIDTH 480 0
DWIDTH 8 0
BBX 6 10 1 0
BITMAP
10
20
00
7C
84
84
84
84
8C
74
ENDCHAR
STARTCHAR char226
ENCODING 226
SWIDTH 480 0
DWIDTH 8 0
BBX 6 10 1 0
BITMAP
30
48
00
7C
84
84
84
84
8C
74
ENDCHAR
STARTCHAR char227
ENCODING 227
SWIDTH 480 0
DWIDTH 8 0
BBX 6 10 1 0
BITMAP
64
98
00
7C
84
84
84
84
8C
74
ENDCHAR
STARTCHAR char228
ENCODING 228
SWIDTH 480 0
DWIDTH 8 0
BBX 6 9 1 0
BITMAP
CC
00
7C
84
84
84
84
8C
74
ENDCHAR
STARTCHAR char229
ENCODING 229
SWIDTH 480 0
DWIDTH 8 0
BBX 6 9 1 0
BITMAP
30
00
7C
84
84
84
84
8C
74
ENDCHAR
STARTCHAR char230
ENCODING 230
SWIDTH 480 0
DWIDTH 8 0
BBX 6 7 1 0
BITMAP
7C
90
90
F8
90
90
9C
ENDCHAR
STARTCHAR char231
ENCODING 231
SWIDTH 480 0
DWIDTH 8 0
BBX 6 10 1 -3
BITMAP
78
84
80
80
80
84
78
08
08
78
ENDCHAR
STARTCHAR char232
ENCODING 232
SWIDTH 480 0
DWIDTH 8 0
BBX 6 10 1 0
BITMAP
20
10
00
78
84
84
FC
80
80
7C
ENDCHAR
STARTCHAR char233
ENCODING 233
SWIDTH 480 0
DWIDTH 8 0
BBX 6 10 1 0
BITMAP
10
20
00
78
84
84
FC
80
80
7C
ENDCHAR
STARTCHAR char234
ENCODING 234
SWIDTH 480 0
DWIDTH 8 0
BBX 6 10 1 0
BITMAP
30
48
00
78
84
84
FC
80
80
7C
ENDCHAR
STARTCHAR char235
ENCODING 235
SWIDTH 480 0
DWIDTH 8 0
BBX 6 9 1 0
BITMAP
CC
00
78
84
84
FC
80
80
7C
ENDCHAR
STARTCHAR char236
ENCODING 236
SWIDTH 480 0
DWIDTH 8 0
BBX 5 10 1 0
BITMAP
40
20
00
E0
20
20
20
20
20
38
ENDCHAR
STARTCHAR char237
ENCODING 237
SWIDTH 480 0
DWIDTH 8 0
BBX 5 10 1 0
BITMAP
10
20
00
E0
20
20
20
20
20
38
ENDCHAR
STARTCHAR char238
ENCODING 238
SWIDTH 480 0
DWIDTH 8 0
BBX 5 10 1 0
BITMAP
30
48
00
E0
20
20
20
20
20
38
ENDCHAR
STARTCHAR char239
ENCODING 239
SWIDTH 480 0
DWIDTH 8 0
BBX 5 9 1 0
BITMAP
D8
00
E0
20
20
20
20
20
38
ENDCHAR
STARTCHAR char240
ENCODING 240
SWIDTH 480 0
DWIDTH 8 0
BBX 6 9 1 0
BITMAP
78
04
04
7C
84
84
84
84
78
ENDCHAR
STARTCHAR char241
ENCODING 241
SWIDTH 480 0
DWIDTH 8 0
BBX 6 10 1 0
BITMAP
64
98
00
F8
84
84
84
84
84
84
ENDCHAR
STARTCHAR char242
ENCODING 242
SWIDTH 480 0
DWIDTH 8 0
BBX 6 10 1 0
BITMAP
20
10
00
78
84
84
84
84
84
78
ENDCHAR
STARTCHAR char243
ENCODING 243
SWIDTH 480 0
DWIDTH 8 0
BBX 6 10 1 0
BITMAP
10
20
00
78
84
84
84
84
84
78
ENDCHAR
STARTCHAR char244
ENCODING 244
SWIDTH 480 0
DWIDTH 8 0
BBX 6 10 1 0
BITMAP
78
84
00
78
84
84
84
84
84
78
ENDCHAR
STARTCHAR char245
ENCODING 245
SWIDTH 480 0
DWIDTH 8 0
BBX 6 10 1 0
BITMAP
64
98
00
78
84
84
84
84
84
78
ENDCHAR
STARTCHAR char246
ENCODING 246
SWIDTH 480 0
DWIDTH 8 0
BBX 6 9 1 0
BITMAP
CC
00
78
84
84
84
84
84
78
ENDCHAR
STARTCHAR char247
ENCODING 247
SWIDTH 480 0
DWIDTH 8 0
BBX 6 7 1 2
BITMAP
30
00
00
FC
00
00
30
ENDCHAR
STARTCHAR char248
ENCODING 248
SWIDTH 480 0
DWIDTH 8 0
BBX 8 8 0 0
BITMAP
01
3E
46
4A
52
62
42
BC
ENDCHAR
STARTCHAR char249
ENCODING 249
SWIDTH 480 0
DWIDTH 8 0
BBX 6 10 1 0
BITMAP
20
10
00
84
84
84
84
84
84
7C
ENDCHAR
STARTCHAR char250
ENCODING 250
SWIDTH 480 0
DWIDTH 8 0
BBX 6 10 1 0
BITMAP
10
20
00
84
84
84
84
84
84
7C
ENDCHAR
STARTCHAR char251
ENCODING 251
SWIDTH 480 0
DWIDTH 8 0
BBX 6 10 1 0
BITMAP
30
48
00
84
84
84
84
84
84
7C
ENDCHAR
STARTCHAR char252
ENCODING 252
SWIDTH 480 0
DWIDTH 8 0
BBX 6 9 1 0
BITMAP
CC
00
84
84
84
84
84
84
7C
ENDCHAR
STARTCHAR char253
ENCODING 253
SWIDTH 480 0
DWIDTH 8 0
BBX 6 13 1 -3
BITMAP
10
20
00
84
84
84
84
84
84
7C
04
84
78
ENDCHAR
STARTCHAR char254
ENCODING 254
SWIDTH 480 0
DWIDTH 8 0
BBX 6 10 1 -2
BITMAP
80
80
F0
88
84
84
88
F0
80
80
ENDCHAR
STARTCHAR char255
ENCODING 255
SWIDTH 480 0
DWIDTH 8 0
BBX 6 12 1 -3
BITMAP
CC
00
84
84
84
84
84
84
7C
04
84
78
ENDCHAR
ENDFONT
